<svg width="24" height="24" viewBox="0 0 24 24" fill="none" xmlns="http://www.w3.org/2000/svg">
<path d="M11.4785 4.07338L11.3609 4.11005C11.1202 4.19239 10.9577 4.30176 10.5961 4.59815L6.06183 8.37535C5.79804 8.59715 5.70369 8.68573 5.58004 8.82962C5.53369 8.88356 5.49071 8.93875 5.45041 8.99635C5.28389 9.23436 5.1601 9.50071 5.08483 9.783C5.01794 10.0339 5.00216 10.2432 5.00021 10.6428L5 18.6818C5.00167 18.9519 5.01943 19.1016 5.13136 19.3263C5.24708 19.5585 5.43162 19.7471 5.65842 19.8654C5.81163 19.9452 5.95775 19.9804 6.11447 19.9935L6.20199 19.9987C6.21691 19.9992 6.23282 19.9995 6.25095 19.9997L9.1885 20C9.39253 19.998 9.52255 19.9807 9.71797 19.8787C9.92127 19.7731 10.0876 19.603 10.1919 19.3941C10.2635 19.2503 10.2945 19.1159 10.3056 18.9771L10.3097 18.9052C10.3103 18.8817 10.3104 18.8552 10.3104 18.8156L10.3107 15.4305C10.3124 14.8434 10.3324 14.6556 10.363 14.594C10.4093 14.5012 10.4832 14.4257 10.574 14.3784L10.597 14.3687C10.6777 14.3412 10.8723 14.3274 11.4537 14.325L12.6784 14.3253C13.2047 14.3292 13.3671 14.3475 13.4263 14.3784C13.5171 14.4257 13.5909 14.5011 13.6372 14.594C13.6705 14.6607 13.6868 14.8329 13.6895 15.4933L13.69 18.8532C13.6918 19.0612 13.7087 19.1937 13.8078 19.393C13.9128 19.6032 14.0791 19.7731 14.2836 19.8794C14.4228 19.952 14.5545 19.9837 14.6905 19.9951L14.7608 19.9993L17.7108 20C17.975 19.9983 18.1215 19.9801 18.3413 19.8657C18.5687 19.7471 18.7533 19.5584 18.869 19.3261C18.9467 19.1702 18.9811 19.0208 18.9939 18.8607L18.9982 18.7935C18.9991 18.7717 18.9997 18.749 19 18.7212L18.9998 10.6288C18.997 10.188 18.982 10.0327 18.9154 9.78297C18.8402 9.50082 18.7164 9.23445 18.5499 8.99644C18.5095 8.93874 18.4666 8.88355 18.4202 8.8296L18.3599 8.7614C18.2504 8.6416 18.1378 8.54187 17.8688 8.31701L13.4041 4.59814C12.987 4.25617 12.8348 4.16316 12.5218 4.07338C12.1806 3.97554 11.8197 3.97554 11.4785 4.07338Z" fill="white"/>
</svg>
