<svg width="24" height="25" viewBox="0 0 24 25" fill="none" xmlns="http://www.w3.org/2000/svg">
<g clip-path="url(#clip0)">
<path fill-rule="evenodd" clip-rule="evenodd" d="M7.36619 5.59889C6.58683 5.17376 6.19715 4.9612 5.87862 5.00015C5.60066 5.03414 5.34968 5.18312 5.18673 5.41087C5 5.67185 5 6.11573 5 7.0035V16.9869C5 17.8747 5 18.3186 5.18673 18.5796C5.34968 18.8073 5.60066 18.9563 5.87862 18.9903C6.19715 19.0292 6.58683 18.8167 7.36619 18.3916L16.5172 13.3998C17.3558 12.9424 17.7752 12.7137 17.9135 12.4108C18.0341 12.1469 18.0341 11.8436 17.9135 11.5796C17.7752 11.2768 17.3558 11.0481 16.5172 10.5906L7.36619 5.59889Z" fill="white" fill-opacity="0.6"/>
</g>
<defs>
<clipPath id="clip0">
<rect width="24" height="24" fill="white" transform="translate(0 0.00146484)"/>
</clipPath>
</defs>
</svg>
