<svg width="24" height="24" viewBox="0 0 24 24" fill="none" xmlns="http://www.w3.org/2000/svg">
<path fill-rule="evenodd" clip-rule="evenodd" d="M3.21799 6.09202C3 6.51984 3 7.0799 3 8.2V12.8C3 13.9201 3 14.4802 3.21799 14.908C3.40973 15.2843 3.71569 15.5903 4.09202 15.7821C4.51984 16 5.0799 16 6.2 16H17.8C18.9201 16 19.4802 16 19.908 15.7821C20.2843 15.5903 20.5903 15.2843 20.782 14.908C21 14.4802 21 13.9201 21 12.8V8.2C21 7.0799 21 6.51984 20.782 6.09202C20.5903 5.7157 20.2843 5.40973 19.908 5.21799C19.4802 5 18.9201 5 17.8 5H6.2C5.0799 5 4.51984 5 4.09202 5.21799C3.71569 5.40973 3.40973 5.7157 3.21799 6.09202ZM8.58242 18C7.69877 18 6.98242 18.7164 6.98242 19.6C6.98242 19.821 7.16151 20 7.38242 20H16.5824C16.8033 20 16.9824 19.821 16.9824 19.6C16.9824 18.7164 16.2661 18 15.3824 18H8.58242Z" fill="white" fill-opacity="0.6"/>
</svg>
