<svg width="205" height="229" fill="none" xmlns="http://www.w3.org/2000/svg"><path d="M127.188 211.47c3.574 5.71 12.862 2.004 17.297.696 4.435-1.309 23.585-7.011 26.126-7.982 3.812-1.456 6.5-7.111 6.603-7.953.574-2.352-2.922-8.123-3.855-9.805-23.605-42.219-93.476-166.693-93.476-166.693-2.052-3.6-6.214-5.678-10.422-5.054 0 0-1.702-.066-5.883.918-10.835 2.376-19.188 4.842-26.602 7.21-3.48 1.07-6.158 3.163-6.657 7.234l-.603 4.913c-.155 1.263.05 2.5.693 3.647l92.754 165.607 4.025 7.262Z" stroke="#777" stroke-width=".5" stroke-miterlimit="10"/><path d="m117.316 101.404-9.246 2.784c-2.069.602-4.28.046-5.258-1.855-1.533-2.61.26-5.026 2.766-5.717l7.696-2.333c2.147-.663 4.526.27 5.723 2.126l.246.316c1.338 1.873.361 4.033-1.927 4.679ZM96.44 107.821l-9.247 2.784c-2.069.602-4.28.045-5.258-1.856-1.532-2.61.26-5.026 2.766-5.716l7.696-2.333c2.147-.663 4.526.27 5.723 2.126l.246.315c1.198 1.857.22 4.017-1.927 4.68ZM63.95 32.312c.63-.493 1.06-1.081 1.224-1.845.278-1.106.056-2.201-.744-3.226-1.54-1.97-4.778-2.865-7.24-1.956-1.271.485-2.094 1.382-2.372 2.488-.278 1.105-.056 2.201.745 3.225 1.54 1.97 4.778 2.866 7.24 1.957.377-.168.754-.335 1.148-.643ZM98.072 93.345c.63-.493 1.058-1.081 1.223-1.845.278-1.105.056-2.201-.744-3.225-1.54-1.97-4.778-2.866-7.24-1.957-1.271.486-2.094 1.382-2.372 2.488s-.056 2.201.745 3.226c1.54 1.97 4.778 2.865 7.24 1.956.377-.168.832-.397 1.148-.643ZM111.63 89.095c.631-.493 1.059-1.082 1.224-1.845.278-1.106.056-2.202-.745-3.226-1.539-1.97-4.778-2.865-7.24-1.956-1.271.485-2.093 1.382-2.371 2.487-.278 1.106-.056 2.202.744 3.226 1.54 1.97 4.778 2.866 7.241 1.956.455-.229.832-.396 1.147-.642ZM83.435 97.677c.63-.492 1.059-1.08 1.223-1.844.278-1.106.057-2.202-.744-3.226-1.54-1.97-4.778-2.866-7.24-1.957-1.27.486-2.093 1.382-2.371 2.488s-.056 2.202.744 3.226c1.54 1.97 4.778 2.865 7.24 1.956.439-.088.833-.396 1.148-.643ZM70.716 44.54c.63-.493 1.059-1.081 1.224-1.845.278-1.106.056-2.202-.745-3.226-1.54-1.97-4.778-2.865-7.24-1.956-1.27.485-2.093 1.382-2.371 2.488-.278 1.105-.056 2.201.744 3.225 1.54 1.97 4.778 2.866 7.24 1.957.439-.089.833-.397 1.148-.643ZM87.188 71.137c1.103-.862 1.802-1.916 2.176-3.224.522-1.93.044-3.841-1.31-5.575-2.772-3.545-8.441-4.953-12.708-3.268-2.165.804-3.713 2.395-4.235 4.325-.522 1.931-.044 3.842 1.311 5.575 2.771 3.546 8.44 4.954 12.708 3.268.753-.335 1.507-.67 2.058-1.1Z" stroke="#777" stroke-width=".5" stroke-miterlimit="10"/><path d="M95.511 78.213c2.443-1.909 4.174-4.404 4.877-7.238 1.157-4.204.067-8.683-3.073-12.702-6.22-7.958-19.13-11.321-28.715-7.51-4.942 1.959-8.293 5.466-9.467 9.81-1.157 4.204-.067 8.684 3.073 12.702 6.22 7.958 19.13 11.321 28.715 7.51 1.788-.636 3.33-1.587 4.59-2.572Z" stroke="#777" stroke-width=".5" stroke-miterlimit="10"/><path d="M174.214 188.169c2.387 4.354 6.393 10.615-4.851 10.519-11.245-.097-24.92 6.277-29.685 9.112-4.371 2.528-7.774 2.395-11.984-5.102L31.736 31.853c-.582-1.069-.85-3.524-.302-5.095" stroke="#777" stroke-width=".5" stroke-miterlimit="10"/><path d="M127.188 211.47c3.574 5.71 12.862 2.004 17.297.696 4.435-1.309 23.585-7.011 26.126-7.982 3.812-1.456 6.5-7.111 6.603-7.953.574-2.352-2.922-8.123-3.855-9.805-23.605-42.219-93.476-166.693-93.476-166.693-2.052-3.6-6.214-5.678-10.422-5.054 0 0-1.702-.066-5.883.918-10.835 2.376-19.188 4.842-26.602 7.21-3.48 1.07-6.158 3.163-6.657 7.234l-.603 4.913c-.155 1.263.05 2.5.693 3.647l92.754 165.607 4.025 7.262Z" stroke="#777" stroke-width="1.5" stroke-miterlimit="10"/></svg>