<svg width="118" height="21" fill="none" xmlns="http://www.w3.org/2000/svg"><path fill-rule="evenodd" clip-rule="evenodd" d="M3.624 12.489c0 2.288 1.782 4.13 3.984 4.13 1.507 0 2.898-.798 3.578-2.044a.755.755 0 0 0 .073-.275v-3.65a.76.76 0 0 0-.1-.348c-.623-1.246-2.087-1.928-3.55-1.928-2.203 0-3.985 1.869-3.985 4.114Zm11.215-7.215v14.488h-3.58v-1.245c-1 .97-2.362 1.536-4.042 1.536-4.1 0-7.215-3.376-7.215-7.565 0-4.17 3.115-7.503 7.215-7.503 1.68 0 3.042.534 4.042 1.505V5.274h3.58Zm15.545 6.65v7.838h-3.577v-7.837c0-1.899-1.348-3.349-3.246-3.349-1.912 0-3.246 1.45-3.246 3.349v7.837h-3.578v-7.837c0-3.855 2.985-6.94 6.824-6.94 3.825 0 6.823 3.085 6.823 6.94Zm5.115.565c0 2.288 1.782 4.13 3.985 4.13 1.507 0 2.898-.798 3.58-2.044a.706.706 0 0 0 .07-.26V10.65a.76.76 0 0 0-.1-.347c-.695-1.203-2.087-1.928-3.55-1.928-2.203 0-3.985 1.869-3.985 4.114ZM46.714.927v18.835h-3.58v-1.245c-.998.97-2.361 1.536-4.041 1.536-4.1 0-7.215-3.376-7.215-7.565 0-4.17 3.114-7.548 7.215-7.548 1.68 0 3.043.58 4.041 1.55V.927h3.58Zm5.476 11.098v7.737h-3.578v-7.737c0-4.592 2.462-7.04 7.07-7.04V8.52c-2.29 0-3.492 1.216-3.492 3.505Zm7.376.463a3.948 3.948 0 1 0 7.897 0 3.94 3.94 0 0 0-3.957-3.939 3.943 3.943 0 0 0-3.94 3.94Zm11.518 0a7.562 7.562 0 0 1-7.578 7.565 7.56 7.56 0 0 1-7.563-7.565c0-4.17 3.392-7.503 7.563-7.503 4.189 0 7.578 3.332 7.578 7.503Zm5.492-10.401a2.085 2.085 0 0 1-2.073 2.086 2.085 2.085 0 0 1-2.071-2.086c0-1.16.927-2.087 2.07-2.087 1.146 0 2.074.927 2.074 2.087Zm-3.871 3.187h3.58v14.488h-3.58V5.274Zm8.826 7.215c0 2.288 1.782 4.13 3.985 4.13 1.507 0 2.898-.798 3.578-2.044a.601.601 0 0 0 .073-.245v-3.68a.736.736 0 0 0-.103-.348c-.695-1.203-2.084-1.928-3.548-1.928-2.203 0-3.985 1.869-3.985 4.114ZM92.744.927v18.835h-3.578v-1.245c-1 .97-2.361 1.55-4.041 1.55-4.1 0-7.217-3.39-7.217-7.579 0-4.17 3.116-7.503 7.217-7.503 1.68 0 3.041.534 4.041 1.505V.927h3.578Zm24.749 4.333-5.883 14.504h-2.869l-5.882-14.488h3.043l4.323 11.256 4.313-11.272h2.955Zm-15.33 12.1-.014 2.577h-.304c-3.767 0-6.201-2.216-6.201-5.969V1.348h2.62v3.928h3.783v2.39h-3.782v6.302c0 2.13 1.48 3.391 3.58 3.391h.318Z" fill="#fff"/></svg>