<svg width="186" height="147" fill="none" xmlns="http://www.w3.org/2000/svg"><path d="M90.052 44.45c.6-2-1.5-3.3-2.1-3.7a16.29 16.29 0 0 0-3.1-1.1 12.19 12.19 0 0 1-1.7-.5 3.18 3.18 0 0 1-1-1 4.67 4.67 0 0 0-1.6-1.5c-2.6-1.5-7.5-1.8-11.6.5a10.69 10.69 0 0 0-4.8 5.3c-.4 1.5-.7 2.7.6 3.5.626.337 1.301.573 2 .7a7.84 7.84 0 0 1 2.4.9 2.65 2.65 0 0 1 1.4 1.4 2.72 2.72 0 0 0 1.2 1.2c1.4.8 3.7.6 5.9.4a30.172 30.172 0 0 0 4.4-.9c-.1-.1-1.7-2.3 1.4-4.1a9.9 9.9 0 0 1 6.2-1l.4-.1Zm-5.5-6a9.699 9.699 0 0 0 8.4-.3 1.38 1.38 0 0 0 .4-.3 9.88 9.88 0 0 0-4.7-.9 7.921 7.921 0 0 0-4 1c-.2.1-.3.2-.3.3 0 .1 0 .2.2.2Zm18.2 6.4 3.1 1.8-4 2.3 3.4 2-2.5 1.5-3.4-2-8.3 4.8c-1.7 1-1.7 1.8-.2 2.7.39.22.79.42 1.2.6l-2.5 1.4c-.6-.3-1.2-.5-1.9-.9-3.5-2-3.6-3.5-.6-5.3l9-5.2-2.5-1.5 2.5-1.5 2.5 1.5 4.2-2.2Zm-3.2 21 21.4-5.8-3.3-1.9-16.4 5-.2-.1 8.6-9.6-3.3-2-10 12.4 3.2 2Z" stroke="#777" stroke-width=".5" stroke-miterlimit="10"/><path d="M112.652 6.35a37.37 37.37 0 0 0-10.7-3.8 50.588 50.588 0 0 0-19 0 43.18 43.18 0 0 0-10.7 3.8c-4 2-8.5 4.6-14.7 8.2l-33.7 19.6c-6.2 3.6-10.8 6.3-14.1 8.6-3.3 2.3-5.4 4.2-6.6 6.3a11 11 0 0 0 0 11.1c1.1 2 3.2 3.9 6.6 6.3 3.4 2.4 8 5 14.1 8.6l33.8 19.7c6.2 3.6 10.8 6.3 14.7 8.2a37.404 37.404 0 0 0 10.7 3.8 50.587 50.587 0 0 0 19 0 43.159 43.159 0 0 0 10.7-3.8c3.9-1.9 8.6-4.6 14.7-8.2l33.7-19.6c6.2-3.6 10.8-6.3 14.1-8.6 3.3-2.3 5.4-4.2 6.6-6.3a10.992 10.992 0 0 0 0-11.1c-1.1-2-3.2-3.9-6.6-6.3-3.4-2.4-8-5-14.1-8.6l-33.8-19.7c-6.1-3.6-10.8-6.2-14.7-8.2Z" stroke="#777" stroke-width=".5" stroke-miterlimit="10"/><path d="m1.152 60.45.9 1.7c1.1 2 3.3 3.9 6.7 6.3 3.4 2.4 8.1 5 14.3 8.6l34.2 19.7c6.2 3.6 10.9 6.3 14.9 8.2a37.928 37.928 0 0 0 10.8 3.8 51.648 51.648 0 0 0 19.2 0 45.211 45.211 0 0 0 10.8-3.8c4-2 8.7-4.6 14.9-8.2l34.1-19.6c6.2-3.6 10.9-6.3 14.3-8.6 3.4-2.3 5.5-4.2 6.7-6.3 0 0 .8-1.7 1.1-2.5" stroke="#777" stroke-width=".5" stroke-miterlimit="10"/><path d="M1.552 55.6v36.3c.013 1.964.53 3.892 1.503 5.6 1.102 2 3.205 3.9 6.61 6.3 3.407 2.4 8.014 5 14.124 8.6l33.856 19.7c6.21 3.6 10.818 6.3 14.724 8.2a37.474 37.474 0 0 0 10.718 3.8 50.753 50.753 0 0 0 19.031 0 43.302 43.302 0 0 0 10.718-3.8c4.007-2 8.614-4.6 14.724-8.2l33.756-19.6c6.21-3.6 10.818-6.3 14.123-8.6 3.306-2.3 5.409-4.2 6.611-6.3a10.38 10.38 0 0 0 1.502-5.3V55" stroke="#777" stroke-width=".5" stroke-miterlimit="10"/><path d="M92.435 2c3.207 0 6.434.29 9.526.872 3.495.66 6.779 1.88 10.735 3.838 3.956 1.957 8.565 4.632 14.73 8.237l33.838 19.712c6.164 3.585 10.773 6.28 14.134 8.586 3.361 2.306 5.435 4.206 6.587 6.26.826 1.473 1.306 2.985 1.46 4.497l.057 1.027V92.3c-.038 1.784-.556 3.567-1.498 5.272-1.133 2.035-3.226 3.954-6.587 6.261-3.36 2.306-7.969 4.981-14.134 8.586l-33.8 19.634c-6.164 3.586-10.773 6.28-14.73 8.237-3.956 1.958-7.24 3.179-10.735 3.838a51.723 51.723 0 0 1-9.525.872 51.88 51.88 0 0 1-9.525-.872c-3.496-.659-6.78-1.88-10.736-3.838-3.956-1.957-8.565-4.632-14.73-8.237l-33.78-19.712c-6.165-3.585-10.774-6.279-14.135-8.586-3.36-2.306-5.434-4.206-6.587-6.26-.998-1.803-1.498-3.683-1.498-5.563v-36.38l.02-1.26c.115-1.628.614-3.275 1.498-4.845 1.133-2.035 3.226-3.954 6.587-6.26 3.36-2.307 7.97-4.981 14.134-8.587l33.723-19.653c6.165-3.585 10.774-6.28 14.73-8.237 3.956-1.958 7.24-3.179 10.735-3.838A51.479 51.479 0 0 1 92.435 2Z" stroke="#777" stroke-width="1.5"/></svg>