<svg width="75" height="36" fill="none" xmlns="http://www.w3.org/2000/svg"><path d="M19.37 6.495c-1.158 1.413-3.138 2.452-4.718 2.452-.178 0-.356-.022-.468-.044a3.016 3.016 0 0 1-.066-.619c0-1.79.912-3.557 1.914-4.683 1.246-1.458 3.36-2.54 5.096-2.607.044.199.066.442.066.685 0 1.767-.756 3.534-1.825 4.816ZM20.593 9.323c1.002 0 4.562.088 6.899 3.446l-.09.06c-.592.382-3.67 2.372-3.67 6.5 0 5.126 4.517 6.937 4.65 6.981-.022.133-.712 2.474-2.38 4.904-1.47 2.12-3.05 4.264-5.409 4.264-1.137 0-1.872-.324-2.631-.66-.815-.36-1.66-.732-3.065-.732-1.406 0-2.331.398-3.207.775-.787.34-1.535.66-2.557.66-2.159 0-3.672-1.987-5.408-4.395C1.723 28.276.098 23.88.098 19.683c0-6.693 4.384-10.272 8.723-10.272 1.278 0 2.438.466 3.465.88.816.328 1.548.622 2.188.622.568 0 1.272-.278 2.09-.602 1.14-.45 2.502-.988 4.03-.988ZM38.58 3.001h5.127v6.556h5.627v4.071h-5.627V27.19c0 2.77 1.12 3.976 3.672 3.976.764 0 1.213-.044 1.893-.112l.062-.006v4.047c-.835.142-1.789.26-2.79.26-5.698 0-7.963-1.987-7.963-6.934V13.628h-4.125v-4.07h4.125V3ZM74.907 9.486 65.561 35.19h-5.508l-9.37-25.704h5.484l6.461 20.497h.405l6.438-20.497h5.436Z" fill="#fff"/></svg>