<svg width="301" height="300" fill="none" xmlns="http://www.w3.org/2000/svg"><path d="M6.184 126.217c-.258-2.319 1.975-4.208 6.956-6.355l30.314-12.366c4.98-1.631 10.648-1.46 15.887.687l76.343 39.932c2.576 1.546 3.091 2.748 3.263 3.693 0 0 .944 18.119.859 19.064-.344 2.834-2.319 4.036-4.294 4.895l-30.572 13.31h-.086c-6.01 2.319-13.053 1.89-19.236-1.459 0 0-74.11-39.932-74.71-40.276-3.264-1.803-3.78-4.809-3.951-6.698l-.773-14.427Z" stroke="#777" stroke-width=".5" stroke-miterlimit="10"/><path d="M139.114 154.641c.086 1.631-1.975 3.263-3.864 4.122l-31.43 13.74c-6.183 2.748-13.654 2.318-20.095-1.117l-73.423-39.502s-.086 0-.086-.086c-2.404-1.288-3.52-2.748-3.778-3.693" stroke="#777" stroke-width=".5" stroke-miterlimit="10"/><path d="M138.935 151.893c.085 1.632-2.061 3.435-4.037 4.294l-31.43 13.74c-6.183 2.748-13.654 2.319-20.094-1.116L9.95 129.308s-.086 0-.086-.086c-2.404-1.288-3.52-2.748-3.778-3.692M116.106 174.049l7.643-3.349c.773-.343 1.288.086 1.288.601l.172 1.288c.086.859-.172 1.46-.945 1.804L116.02 178a.687.687 0 0 1-.944-.516l-.172-1.545c-.086-.859.429-1.546 1.202-1.89Z" stroke="#777" stroke-width=".5" stroke-miterlimit="10"/><path d="m123.31 170.786.086 1.031c.172 1.03.172 1.374-.944 1.803l-7.557 3.263M109.917 177.828l.344-.172c.258-.086.601.086.601.344l.086.429c.086.515-.172.945-.687 1.116l-.429.172c-.258.086-.516-.086-.516-.343l-.086-.516c0-.429.258-.858.687-1.03ZM115.85 117.887l-.172-1.546c-.172-1.975-4.208-3.263-7.9-3.263-3.607 0-7.386 1.803-7.214 3.779l.258 1.545s.601 3.006 7.986 2.92c7.3-.258 7.042-3.435 7.042-3.435Z" stroke="#777" stroke-width=".5" stroke-miterlimit="10"/><path d="M115.684 116.169c.172 1.976-3.778 3.521-7.557 3.607-3.692 0-7.299-1.116-7.471-3.091M144.62 104.404l-.172-1.545c-.172-1.976-4.208-3.264-7.901-3.264-3.606 0-7.385 1.804-7.213 3.779l.086 1.546s.601 3.091 7.986 2.919c7.471-.343 7.214-3.435 7.214-3.435Z" stroke="#777" stroke-width=".5" stroke-miterlimit="10"/><path d="M144.434 102.601c.172 1.975-3.778 3.521-7.557 3.607-3.778.086-7.299-1.116-7.471-3.091M144.19 131.713l-.172-1.546c-.172-1.975-4.208-3.263-7.9-3.263-3.607 0-7.386 1.803-7.214 3.778l.086 1.546s.601 3.091 7.986 2.92c7.386-.258 7.214-3.435 7.214-3.435Z" stroke="#777" stroke-width=".5" stroke-miterlimit="10"/><path d="M143.927 129.995c.171 1.975-3.779 3.521-7.557 3.607-3.693 0-7.3-1.117-7.472-3.092M194.932 157.389l-.172-1.546c-.171-1.975-4.208-3.263-7.9-3.263-3.607 0-7.385 1.803-7.214 3.778l.086 1.546s.601 3.092 7.987 2.92c7.471-.258 7.213-3.435 7.213-3.435Z" stroke="#777" stroke-width=".5" stroke-miterlimit="10"/><path d="M194.766 155.672c.172 1.975-3.778 3.521-7.557 3.607-3.692 0-7.299-1.117-7.471-3.092M209.209 150.606l-.171-1.546c-.172-1.975-4.208-3.263-7.901-3.263-3.607 0-7.385 1.803-7.213 3.778l.085 1.546s.602 3.091 7.987 2.92c7.471-.344 7.213-3.435 7.213-3.435Z" stroke="#777" stroke-width=".5" stroke-miterlimit="10"/><path d="M209.024 148.802c.172 1.975-3.778 3.521-7.557 3.607-3.692 0-7.299-1.117-7.471-3.092M223.448 143.563l-.172-1.545c-.172-1.976-4.208-3.264-7.901-3.264-3.606 0-7.385 1.804-7.213 3.779l.086 1.546s.601 3.091 7.986 2.919c7.471-.257 7.214-3.435 7.214-3.435Z" stroke="#777" stroke-width=".5" stroke-miterlimit="10"/><path d="M223.282 141.846c.172 1.975-3.778 3.521-7.557 3.607-3.778.086-7.299-1.116-7.471-3.091M128.26 112.426c.007-.331-.602-.613-1.361-.629-.759-.016-1.379.24-1.386.572-.007.332.602.614 1.361.63.758.016 1.379-.241 1.386-.573ZM157.841 108.355c2.405 1.288 2.147 3.091-.343 4.208l-30.744 13.74c-2.318 1.03-5.152 1.202-7.814.429-3.006-.945-3.693-3.263-1.632-4.38 7.299-3.95 30.142-14.169 30.142-14.169 2.834-1.288 7.3-1.374 10.133.086l.258.086Z" stroke="#777" stroke-width=".5" stroke-miterlimit="10"/><path d="m159.57 110.072.258 2.319c0 .601-.859 1.46-2.319 2.061l-30.486 13.74c-2.318 1.03-5.324 1.46-7.642.429-1.718-.773-2.748-1.202-2.834-2.233l-.344-2.061M171.327 114.624c2.405 1.288 2.147 3.091-.343 4.208l-17.433 7.299c-2.318 1.031-5.152 1.202-7.814.429-3.006-.944-3.693-3.263-1.632-4.379 7.299-3.95 16.917-7.643 16.917-7.643 2.834-1.288 7.3-1.374 10.134.086h.171Z" stroke="#777" stroke-width=".5" stroke-miterlimit="10"/><path d="m172.966 116.341.258 2.319c0 .601-.859 1.459-2.319 2.061l-17.261 7.299c-2.318 1.03-5.324 1.46-7.642.429-1.718-.773-2.748-1.202-2.834-2.232l-.344-2.319M176.575 141.932c5.833-.121 10.515-2.409 10.46-5.112-.056-2.703-4.83-4.796-10.662-4.676-5.832.12-10.515 2.409-10.459 5.112.055 2.703 4.829 4.796 10.661 4.676Z" stroke="#777" stroke-width=".5" stroke-miterlimit="10"/><path d="M200.857 135.749c.859 6.956-9.189 13.396-22.929 13.997-13.482.687-25.333-3.864-26.106-11.335-.687-6.613 9.361-12.452 22.843-13.053 13.482-.601 25.419 3.778 26.192 10.391Z" stroke="#777" stroke-width=".5" stroke-miterlimit="10"/><path d="M94.465 120.034s0 1.288 3.091 3.091c0 0 113.956 57.193 139.633 70.847 5.324 2.834 12.194 6.956 25.591 1.202l23.616-11.335c2.404-1.117 8.072-3.779 7.728-6.527" stroke="#777" stroke-width=".5" stroke-miterlimit="10"/><path d="M293.863 175.079c.343 2.662-5.325 5.496-7.729 6.612l-23.616 11.422c-13.396 5.753-20.266 1.631-25.59-1.202-25.763-13.655-139.633-70.761-139.633-70.761-2.577-1.632-3.006-2.405-3.006-3.865" stroke="#777" stroke-width=".5" stroke-miterlimit="10"/><path d="m140.06 152.58 99.701 51.526c4.638 2.232 15.63 7.299 25.419 3.52 3.521-1.374 9.189-2.232 21.813-13.74 0 0 7.642-6.784 7.471-9.446-.086-2.748-.859-7.213-1.031-9.274-.172-1.975-2.147-3.264-3.177-3.865-35.982-18.635-143.927-71.963-143.927-71.963s-2.061-.945-2.748-1.116c-1.975-.687-4.208-.773-6.526-.773-2.576 0-5.153.343-7.214 1.03-.515.172-1.545.516-2.061.773-7.299 3.263-21.898 10.047-29.197 13.74-2.405 1.202-3.263 2.405-3.607 3.092-.344.858-.43 1.889-.344 2.919l1.289 8.073" stroke="#777" stroke-width=".5" stroke-miterlimit="10"/><path d="M200.789 134.976c.086 6.698-9.704 12.624-22.929 13.225-12.967.601-24.388-3.521-25.934-10.477" stroke="#777" stroke-width=".5" stroke-miterlimit="10"/><path d="m294.514 175.098-.003-.034-.006-.033c-.211-1.164-.914-2.093-1.638-2.781-.728-.694-1.539-1.201-2.071-1.511l-.016-.009-.016-.009c-18.042-9.364-54.588-27.573-86.704-43.47a18884.824 18884.824 0 0 0-41.995-20.722c-5.49-2.701-9.989-4.908-13.136-6.449a1560.531 1560.531 0 0 0-4.653-2.27 9.053 9.053 0 0 0-.441-.205l-.008-.003-.009-.003c-2.107-.733-4.455-.815-6.773-.815-2.612 0-5.206.26-7.389 1.078-.082.03-.232.095-.395.166l-.841.373c-.706.316-1.694.761-2.887 1.301-2.386 1.081-5.594 2.544-9.014 4.117-6.833 3.144-14.531 6.734-18.197 8.588-2.488 1.245-3.585 2.458-4.026 3.341l-.014.028-.012.029-.014.034c-.165.412-.383.957-.383 1.618 0 .16.043.451.09.747.053.329.127.757.215 1.246.177.978.412 2.215.647 3.429.23 1.189.46 2.358.635 3.24l-35.873-18.517-.03-.015-.03-.012c-5.4-2.213-11.251-2.394-16.405-.706l-.025.008-.025.01-30.314 12.366-.007.003-.008.004c-2.294.995-4.067 1.951-5.298 2.964-1.24 1.02-1.999 2.156-2.107 3.503l-.004.052.003.051.859 14.942v.013l.002.012c.177 1.949.728 5.294 4.334 7.287l.014.007.013.007.001.001.016.008.053.028.187.1.676.362 2.455 1.32 8.556 4.609 25.65 13.828 25.52 13.764 8.395 4.529 2.35 1.267.62.334.159.086.04.022.01.005.002.001v.001c6.324 3.425 13.537 3.894 19.732 1.55h.103l.144-.063 30.571-13.31c1.016-.442 2.083-1.001 2.954-1.861.887-.874 1.543-2.031 1.782-3.609l.002-.015.002-.015c.017-.155.016-.456.01-.8a94.95 94.95 0 0 0-.041-1.433c-.04-1.151-.105-2.665-.18-4.314-.141-3.09-.32-6.661-.448-9.218l-.024-.476V154.702l-.001-.025c-.033-.496-.053-.937-.071-1.325l-.014-.314-.017-.321 99.651 52.138.011.006.012.006c2.326 1.12 6.295 2.975 10.93 4.069 4.632 1.092 9.995 1.44 15.084-.524l.003-.001c.429-.168.908-.333 1.442-.516 1.542-.529 3.541-1.216 6.129-2.591 3.501-1.86 8.121-4.989 14.459-10.765l.009-.007.066-.055.249-.209a56.95 56.95 0 0 0 3.54-3.255c.961-.966 1.938-2.037 2.668-3.049.365-.506.682-1.016.903-1.504.214-.471.367-.982.341-1.482-.003-.916-.188-3.391-.369-5.6a561.602 561.602 0 0 0-.252-2.983l-.083-.944-.023-.261-.007-.069-.001-.017-.001-.005v-.001l-.747.067.747-.067Z" stroke="#777" stroke-width="1.5" stroke-miterlimit="10"/></svg>