<svg width="82" height="36" fill="none" xmlns="http://www.w3.org/2000/svg"><path fill-rule="evenodd" clip-rule="evenodd" d="M35.886 18.49C35.886 8.828 28.053.994 18.39.994 8.728.994.894 8.828.894 18.49c0 9.662 7.834 17.496 17.496 17.496 9.663 0 17.496-7.834 17.496-17.496Zm-2.715-.006c0 3.95-1.54 7.66-4.328 10.452a14.685 14.685 0 0 1-10.451 4.328A14.687 14.687 0 0 1 7.94 28.936a14.693 14.693 0 0 1-4.328-10.452c0-8.146 6.63-14.777 14.779-14.777l.831.01V5.353l-.831-.01a13.064 13.064 0 0 0-9.294 3.85 13.065 13.065 0 0 0-3.848 9.291 13.07 13.07 0 0 0 3.848 9.294 13.06 13.06 0 0 0 9.294 3.852c6.894 0 12.65-5.387 13.112-12.261 0 0 .002-.025.002-.052h-8.802v-1.63h9.743l.724-.004v.801Zm-10.467 6.162h-3.48V10.678h-1.665v15.606h5.145v-1.638Zm-9.9-13.978a2.237 2.237 0 0 1 2.234 2.234 2.233 2.233 0 0 1-4.464 0c0-1.23 1-2.234 2.23-2.234Z" fill="#fff"/><path d="M49.727 7.242v18.115h11.005v4.38H44.415V7.242h5.312ZM72.013 16.971v4.188h4.267v3.925c-.786.298-2.32.595-3.78.595-4.72 0-6.291-2.374-6.291-7.19 0-4.594 1.497-7.299 6.215-7.299 2.622 0 4.119.816 5.354 2.372l3.26-2.964C79.05 7.783 75.568 6.93 72.31 6.93c-7.338 0-11.196 3.964-11.196 11.522 0 7.523 3.483 11.598 11.159 11.598 3.52 0 6.966-.89 8.837-2.185V16.972h-9.098Z" fill="#fff"/></svg>