<svg width="57" height="57" fill="none" xmlns="http://www.w3.org/2000/svg"><path fill-rule="evenodd" clip-rule="evenodd" d="M50.448 6.788C45.215 1.577 37.696.994 28.504.994c-9.192 0-16.735.59-21.964 5.814C1.31 12.032.782 19.551.782 28.745c0 9.193.53 16.716 5.76 21.94 5.23 5.224 12.761 5.755 21.962 5.755 9.2 0 16.733-.53 21.962-5.755 5.23-5.226 5.756-12.747 5.756-21.938 0-9.192-.541-16.726-5.774-21.959ZM26.461 38.994a.345.345 0 0 1-.346.34h-4.719a.347.347 0 0 1-.36-.34V26.637a.345.345 0 0 1 .36-.34h4.728a.345.345 0 0 1 .346.34l-.009 12.357Zm9.259 0a.344.344 0 0 1-.348.34H30.86a.347.347 0 0 1-.35-.34v-10.67c0-1.862-.11-3.776-1.072-4.738-.827-.828-2.37-1.02-3.97-1.06H17.31a.346.346 0 0 0-.348.342v16.126a.35.35 0 0 1-.361.34H12.09a.345.345 0 0 1-.348-.34V18.447a.342.342 0 0 1 .216-.316.344.344 0 0 1 .132-.025h12.992c3.396 0 6.945.155 8.695 1.907s1.917 5.305 1.917 8.705l.025 10.276Zm9.271 0a.346.346 0 0 1-.35.34h-4.51a.345.345 0 0 1-.35-.34V18.447a.342.342 0 0 1 .217-.316.344.344 0 0 1 .132-.025h4.511a.348.348 0 0 1 .35.34v20.548Z" fill="#fff"/></svg>