<svg width="140" height="40" viewBox="0 0 140 40" fill="none" xmlns="http://www.w3.org/2000/svg">
<rect width="140" height="40" rx="3" fill="#444444"/>
<path fill-rule="evenodd" clip-rule="evenodd" d="M71.4783 23.6973C73.5864 23.6973 75.208 25.2378 75.208 27.427C75.208 29.6162 73.5053 31.1568 71.4783 31.1568C69.4513 31.1568 67.7486 29.5351 67.7486 27.427C67.7486 25.2378 69.4513 23.6973 71.4783 23.6973ZM71.4783 29.6162C72.6135 29.6162 73.5864 28.7243 73.5864 27.3459C73.5864 25.9676 72.6135 25.0757 71.4783 25.0757C70.3432 25.0757 69.3702 26.0486 69.3702 27.3459C69.3702 28.7243 70.3432 29.6162 71.4783 29.6162ZM63.3702 23.6973C65.4783 23.6973 67.0999 25.2378 67.0999 27.427C67.0999 29.6162 65.3972 31.1568 63.3702 31.1568C61.3432 31.1568 59.6405 29.5351 59.6405 27.427C59.6405 25.2378 61.3432 23.6973 63.3702 23.6973ZM63.3702 29.6162C64.5053 29.6162 65.4783 28.7243 65.4783 27.3459C65.4783 25.9676 64.5053 25.0757 63.3702 25.0757C62.2351 25.0757 61.2621 26.0486 61.2621 27.3459C61.2621 28.7243 62.2351 29.6162 63.3702 29.6162ZM53.7216 26.373V24.6703H59.0729C59.154 24.9135 59.154 25.2378 59.154 25.6432C59.154 26.7784 58.8297 28.2378 57.7756 29.2919C56.7216 30.3459 55.4243 30.9135 53.7216 30.9135C50.5594 30.9135 47.8837 28.3189 47.8837 25.1568C47.8837 21.9946 50.5594 19.4 53.7216 19.4C55.5053 19.4 56.7216 20.1297 57.6945 21.0216L56.5594 22.1568C55.9107 21.5081 54.9378 21.0216 53.7216 21.0216C51.3702 21.0216 49.5864 22.8865 49.5864 25.2378C49.5864 27.5892 51.3702 29.4541 53.7216 29.4541C55.2621 29.4541 56.0729 28.8865 56.6405 28.3189C57.127 27.9135 57.4513 27.2649 57.5324 26.373H53.7216ZM93.208 26.0486L93.2891 26.6162L88.3432 28.6432C88.7486 29.373 89.3162 29.7784 90.127 29.7784C91.0189 29.7784 91.5864 29.373 91.9918 28.7243L93.2891 29.5351C92.8837 30.1027 91.9107 31.1568 90.208 31.1568C88.0999 31.1568 86.5594 29.5351 86.5594 27.427C86.5594 25.2378 88.0999 23.6973 90.0459 23.6973C91.9918 23.6973 92.8837 25.2378 93.208 26.0486ZM88.181 27.2649L91.5053 25.8865C91.3432 25.4 90.7756 25.0757 90.127 25.0757C89.3162 25.0757 88.0999 25.8054 88.181 27.2649ZM84.127 30.9135V19.9676H85.7486V30.9135H84.127ZM81.4513 24.5081V23.8595H82.9918V30.5081C82.9918 33.2649 81.4513 34.4 79.5053 34.4C77.6405 34.4 76.5864 33.1838 76.181 32.2108L77.6405 31.8054C77.8837 32.373 78.5324 33.1027 79.5053 33.1027C80.7216 33.1027 81.4513 32.2919 81.4513 30.9135V30.3459H81.3702C81.0459 30.7514 80.3162 31.1568 79.4243 31.1568C77.5594 31.1568 75.8567 29.5351 75.8567 27.427C75.8567 25.3189 77.5594 23.6973 79.4243 23.6973C80.3162 23.6973 81.0459 24.1027 81.4513 24.5081ZM79.5864 29.6162C80.7216 29.6162 81.6134 28.7243 81.5324 27.3459C81.5324 26.0486 80.7216 25.0757 79.5864 25.0757C78.5324 25.0757 77.5594 26.0486 77.5594 27.3459C77.5594 28.6432 78.4513 29.6162 79.5864 29.6162ZM100.83 19.9676C102.695 19.9676 104.397 21.1838 104.397 23.2919C104.397 25.4 102.613 26.6973 100.83 26.6973H98.5594V30.8324H96.9378V19.9676H100.83ZM100.911 25.2378C102.127 25.2378 102.776 24.1838 102.857 23.373C102.857 22.4811 102.127 21.5081 100.911 21.5081H98.5594V25.2378H100.911ZM110.965 23.6973C112.83 23.6973 114.289 24.7514 114.208 26.6162V30.8324H112.668V30.0216H112.586C112.181 30.5892 111.532 31.0757 110.478 31.0757C109.1 31.0757 107.803 30.1027 107.803 28.6432C107.803 27.1027 109.424 26.2108 110.965 26.2108C111.776 26.2108 112.343 26.4541 112.668 26.6162V26.5351C112.668 25.6432 111.776 25.1568 110.965 25.1568C110.397 25.1568 109.83 25.4 109.505 25.9676L108.046 25.4C108.532 24.1838 109.749 23.6973 110.965 23.6973ZM110.722 29.6162C111.695 29.6162 112.586 28.8865 112.586 27.9135C112.181 27.7514 111.857 27.5892 111.127 27.5892C110.316 27.5892 109.424 27.9135 109.424 28.7243C109.424 29.373 110.154 29.6162 110.722 29.6162ZM119.965 23.9405V23.8595H121.749L117.289 34.1568H115.586L117.208 30.5081L114.289 23.9405H116.073L118.019 28.6432H118.1L119.965 23.9405ZM105.37 30.9135V19.9676H106.992V30.9135H105.37ZM50.2104 13.5083C50.1665 14.2158 50.0786 14.6904 49.7842 15.042V15.1035H52.6758V10.5552H50.4038L50.2104 13.5083ZM49.0767 16V17.2524H48.1758V15.1035H48.6372C49.0898 14.8311 49.248 14.2993 49.2964 13.4556L49.5293 9.65869H53.6602V15.1035H54.4512V17.2524H53.5503V16H49.0767ZM57.6808 16.0923C56.2789 16.0923 55.422 15.1562 55.422 13.605C55.422 12.0625 56.2833 11.1221 57.6808 11.1221C59.0738 11.1221 59.9352 12.0625 59.9352 13.605C59.9352 15.1562 59.0782 16.0923 57.6808 16.0923ZM57.6808 15.2529C58.4981 15.2529 58.964 14.6465 58.964 13.605C58.964 12.5679 58.4981 11.9614 57.6808 11.9614C56.859 11.9614 56.3976 12.5679 56.3976 13.605C56.3976 14.6509 56.859 15.2529 57.6808 15.2529ZM65.3796 12.7788H64.4611C64.3513 12.313 63.9646 11.9658 63.3317 11.9658C62.5407 11.9658 62.0573 12.5723 62.0573 13.5918C62.0573 14.6289 62.5451 15.2485 63.3317 15.2485C63.9294 15.2485 64.3381 14.9761 64.4611 14.4619H65.3796C65.2565 15.4243 64.5183 16.0923 63.3361 16.0923C61.9431 16.0923 61.0905 15.1519 61.0905 13.5918C61.0905 12.0581 61.9387 11.1221 63.3317 11.1221C64.5315 11.1221 65.2565 11.8208 65.3796 12.7788ZM70.077 11.2144V12.0098H68.5696V16H67.6248V12.0098H66.1175V11.2144H70.077ZM71.786 17.7358C71.7069 17.7358 71.4828 17.7271 71.3949 17.7139V16.9009C71.4696 16.9141 71.6147 16.9185 71.7026 16.9185C72.1508 16.9185 72.4057 16.7339 72.5683 16.2505L72.6386 16.0176L70.9071 11.2144H71.9355L73.1352 15.0156H73.2099L74.4052 11.2144H75.4071L73.623 16.1978C73.2143 17.3623 72.7616 17.7358 71.786 17.7358ZM79.7354 16V12.0098H77.5733V16H76.6284V11.2144H80.6758V16H79.7354ZM85.4523 16V13.9258H83.2462V16H82.3014V11.2144H83.2462V13.1304H85.4523V11.2144H86.3927V16H85.4523ZM90.0442 16.0923C88.6423 16.0923 87.7854 15.1562 87.7854 13.605C87.7854 12.0625 88.6467 11.1221 90.0442 11.1221C91.4372 11.1221 92.2986 12.0625 92.2986 13.605C92.2986 15.1562 91.4416 16.0923 90.0442 16.0923ZM90.0442 15.2529C90.8615 15.2529 91.3274 14.6465 91.3274 13.605C91.3274 12.5679 90.8615 11.9614 90.0442 11.9614C89.2224 11.9614 88.761 12.5679 88.761 13.605C88.761 14.6509 89.2224 15.2529 90.0442 15.2529ZM97.2963 11.9395H96.2548V13.1787H97.1909C97.7621 13.1787 98.0346 12.959 98.0346 12.5547C98.0346 12.1812 97.7973 11.9395 97.2963 11.9395ZM97.2568 13.873H96.2548V15.2749H97.3754C97.9335 15.2749 98.2324 15.0288 98.2324 14.5762C98.2324 14.0972 97.894 13.873 97.2568 13.873ZM95.3188 16V11.2144H97.4765C98.4125 11.2144 98.9619 11.689 98.9619 12.4316C98.9619 12.915 98.6191 13.3545 98.1533 13.4424V13.5171C98.7729 13.5874 99.1772 14.04 99.1772 14.6201C99.1772 15.4551 98.5488 16 97.4985 16H95.3188ZM31.108 15.605L27.537 19.1759L17.5108 9.14973C18.0602 8.87504 18.7469 9.01238 19.2963 9.28707L31.108 15.605ZM35.3657 17.9398C37.0138 18.7639 37.0138 21.0988 35.3657 21.9228L31.932 23.7083L28.2237 20L32.0694 16.1543L35.3657 17.9398ZM16.5494 9.83646L26.7129 20L16.5494 30.1635C16.2747 29.8889 16 29.3395 16 28.6527V11.3473C16 10.6605 16.2747 10.1111 16.5494 9.83646ZM17.5108 30.8503L27.537 20.8241L31.108 24.395L19.4336 30.7129C18.7469 30.9876 18.0602 31.125 17.5108 30.8503Z" fill="white"/>
</svg>
