<svg width="104" height="17" fill="none" xmlns="http://www.w3.org/2000/svg"><path d="M56.635 7.724s-.963-.643-1.558-.892c0 0-1.843-.922-2.209-1.361 0 0-.718-.731-.297-1.58 0 0 .176-.556.935-.556 0 0 .988.059.988.936v1.237h3.54l-.005-1.822S58.3.702 53.858.57c0 0-3.495-.248-4.497 1.785 0 0-.394.454-.394 2.033V5.53s-.04 1.316.583 2.165c0 0 .352.556 1.219 1.17 0 0 1.76 1.024 2.817 1.61 0 0 1.066.658.926 1.705 0 0-.087 1.074-1.117 1.03 0 0-.942-.045-.942-1.1v-1.236H48.68v1.796s-.105 3.436 4.743 3.436c0 0 4.633.101 4.849-3.526v-1.462s.164-2.223-1.637-3.394ZM37.825.912l-1.221 8.136h-.286L35.15.985h-6.095l-.306 14.733h3.61l.042-11.1h.284L34.6 15.716h3.797l1.889-11.094h.251l.087 11.096h3.628L43.861.912h-6.036ZM15.771.912l-2.56 14.769h4.143L18.87 4.23h.341l1.516 11.45h4.143L22.31.913H15.77ZM98.54 7.638v2.147h1.01v2.304c0 1.126-.93 1.147-.93 1.147-1.13 0-1.087-1.07-1.087-1.07v-7.97c0-.821 1.003-.865 1.003-.865.962 0 .969.98.969.98v1.211h3.708c.121-2.366-.335-2.938-.335-2.938-.919-2.14-4.399-2.022-4.399-2.022-5.347 0-4.753 4.249-4.753 4.249v7.705c.114 3.985 5.383 3.58 5.472 3.577 2.344-.268 3.052-1.04 3.052-1.04.651-.501.819-1.195.819-1.195.186-.404.233-1.692.233-1.692V7.638H98.54ZM86.587 9.923h-.16L82.684.913h-4.479v14.805h3.645l-.218-9.008h.163l3.878 9.008h4.342V.912h-3.69l.262 9.01ZM69.027 11.71s.054 1.18-1.044 1.18c0 0-1.154.062-1.154-1.151L66.817.912H62.71v10.74s-.42 4.066 5.33 4.066c0 0 4.997.059 4.997-3.879V.913h-4.011V11.71ZM8.654 7.723s-.961-.643-1.557-.891c0 0-1.842-.922-2.207-1.361 0 0-.718-.733-.297-1.58 0 0 .175-.556.933-.556 0 0 .99.059.99.936v1.237h3.541l-.007-1.823S10.32.701 5.88.57c0 0-.335-.023-.826.003 0 0-2.69.156-3.653 1.75-.005.013-.013.021-.019.032 0 0-.392.453-.392 2.033V5.53s-.041 1.317.582 2.166c0 0 .352.556 1.219 1.17 0 0 1.76 1.023 2.816 1.61 0 0 1.068.656.927 1.704 0 0-.087 1.075-1.117 1.03 0 0-.942-.045-.942-1.099v-1.237H.702v1.798s-.106 3.435 4.742 3.435c0 0 4.632.101 4.85-3.526V11.12s.161-2.225-1.64-3.396Z" fill="#fff"/></svg>