<svg width="96" height="18" fill="none" xmlns="http://www.w3.org/2000/svg"><path fill-rule="evenodd" clip-rule="evenodd" d="M25.518 14.811c2.139 1.919 5.341 2.954 8.792 2.954 3.46 0 6.73-1.023 8.81-2.954 1.544-1.432 2.36-3.502 2.36-5.446 0-2.006-.769-3.98-2.36-5.423C40.887 1.914 37.963.994 34.31.994c-3.3 0-6.807 1.133-8.792 2.943a7.318 7.318 0 0 0-2.392 5.428c0 2.026.777 3.996 2.392 5.446Zm13.508-1.07c-1.186 1.179-2.884 1.812-4.716 1.812-1.818 0-3.553-.647-4.724-1.813-1.123-1.117-1.723-2.698-1.723-4.375 0-1.684.594-3.266 1.723-4.385 1.17-1.16 2.912-1.802 4.724-1.802 1.807 0 3.546.649 4.716 1.802 1.136 1.12 1.728 2.697 1.728 4.385 0 1.76-.549 3.203-1.727 4.375Z" fill="#fff"/><path d="M3.365 2.144c1.781-.795 3.879-1.14 5.725-1.14 3.256.004 5.913 1.068 6.852 1.56.374.206.572-.043.572-.235v-.593h2.1v5.108h-1.88a3.551 3.551 0 0 0-1.165-1.948c-.354-.289-.8-.534-1.181-.704-1.121-.5-2.883-.977-4.964-.97-1.76 0-3.448.327-4.284.85-.527.33-.793.738-.793 1.219 0 .676.582.953.868 1.042.79.244 2.575.421 3.933.556.263.026.51.05.73.074 1.298.135 4.011.499 5.211.793.618.152 1.374.422 1.852.647.55.258 1.078.594 1.51 1.025a4.321 4.321 0 0 1 1.217 3.037c0 1.75-1.035 2.713-1.507 3.089-.872.695-1.945 1.142-2.813 1.39l-.083.024c-.918.263-2.245.643-4.654.643-1.44 0-2.223-.164-3.34-.398l-.194-.04A18.365 18.365 0 0 1 3.67 16.07c-.391-.177-.503.195-.503.285v.793H.839v-5.868h2.095c0 .696.331 1.399.541 1.655.845 1.031 1.75 1.438 2.613 1.745.749.268 2.802.782 4.51.782 2.19 0 3.461-.529 3.75-.649l.039-.016.036-.014c.259-.099 1.224-.467 1.224-1.546 0-1.099-.943-1.335-1.554-1.49l-.072-.018c-.72-.182-2.433-.362-4.225-.55l-.316-.034c-1.918-.201-3.844-.504-4.745-.7-1.961-.43-2.744-1.152-3.226-1.597l-.04-.036C1.439 8.783.374 7.755.375 6.032c0-1.967 1.346-3.154 2.99-3.888ZM55.098 1.93l10.241 9.243-.104-6.223c-.011-.816-.162-1.157-1.044-1.157h-1.926v-1.86h8.758v1.86h-1.88c-.9 0-.956.289-.967 1.157l.159 11.89h-3L53.54 6.314l.002 7.471c.011.813.049 1.195.886 1.195h2.103v1.861h-8.6V14.98h2.01c.724 0 .722-.665.721-1.18V5.022c0-.563-.08-1.226-1.258-1.226h-1.63V1.93h7.324ZM81.546 14.943c-.07.021-.436.032-.518.032h-1.822v1.861h10.216v-1.862H87.5c-.082 0-.443-.01-.513-.033a.639.639 0 0 1-.404-.357c-.027-.063-.04-.343-.04-.402V11.224c0-.072-.001-.18.069-.26l1.606-1.832 4.06-4.632c.513-.58.79-.706 1.473-.706h1.88V1.93h-8.416v1.863h1.27c.36 0 .471.377.305.576-.027.033-3.526 4.144-3.57 4.185-.043.04-.07.03-.102-.014a3396.23 3396.23 0 0 0-3.489-4.177c-.244-.301-.053-.573.232-.573h1.238V1.93H72.83v1.863h1.819c.794 0 1.316.5 1.613.825.24.261 5.472 6.19 5.604 6.363.12.157.125.188.125.259l-.001 2.942c0 .06-.013.34-.04.402a.642.642 0 0 1-.404.358Z" fill="#fff"/></svg>