<svg width="155" height="30" fill="none" xmlns="http://www.w3.org/2000/svg"><path d="M10.073 23.056h3.353V3.75H8.55c-4.905 0-7.482 2.528-7.482 6.25 0 2.972 1.413 4.722 3.935 6.528L.625 23.056h3.63L9.13 15.75l-1.69-1.139c-2.05-1.389-3.048-2.472-3.048-4.805 0-2.056 1.441-3.445 4.184-3.445h1.496v16.695Zm64.644.277c1.524 0 2.605-.277 3.408-.86v-2.695c-.831.583-1.829.944-3.214.944-2.355 0-3.325-1.833-3.325-4.722 0-3.028 1.191-4.583 3.353-4.583 1.274 0 2.521.444 3.186.86V9.473c-.693-.389-1.912-.666-3.547-.666-4.211 0-6.4 3.027-6.4 7.277 0 4.667 2.133 7.25 6.539 7.25Zm-20.615-1.222v-2.694c-1.025.694-2.743 1.305-4.35 1.305-2.41 0-3.325-1.139-3.464-3.472h7.953V15.5c0-4.861-2.134-6.694-5.431-6.694-4.018 0-5.93 3.083-5.93 7.305 0 4.861 2.383 7.222 6.595 7.222 2.105 0 3.657-.555 4.627-1.222ZM23.9 9.083v5.528h-4.406V9.083h-3.297v13.973h3.297v-5.834H23.9v5.834h3.297V9.083H23.9Zm18.177 11.361h-1.469V9.084h-9.615v1.194c0 3.416-.221 7.833-1.385 10.166h-1.025v5.806h3.048v-3.194h7.398v3.194h3.047v-5.806Zm22.554 2.612h3.74l-5.292-7.528 4.655-6.445H64.41l-4.655 6.445V9.083h-3.297v13.973h3.297v-6.862l4.877 6.862Zm-15.877-11.64c1.635 0 2.134 1.362 2.134 3.112v.278h-4.6c.083-2.223.887-3.39 2.466-3.39Zm-11.443 9.028h-4.655c.914-2.11 1.163-5.916 1.163-8.333v-.417h3.492v8.75Z" fill="#fff"/><path d="M85 15c0-6.25 0-9.374 1.54-11.565a8.205 8.205 0 0 1 1.785-1.843C90.445 0 93.471 0 99.52 0h40.335c6.049 0 9.074 0 11.195 1.592a8.187 8.187 0 0 1 1.784 1.843c1.541 2.19 1.541 5.315 1.541 11.565 0 6.25 0 9.374-1.541 11.565a8.188 8.188 0 0 1-1.784 1.843C148.929 30 145.904 30 139.855 30H99.52c-6.05 0-9.074 0-11.195-1.591a8.206 8.206 0 0 1-1.784-1.844C85 24.375 85 21.25 85 15Z" fill="url(#a)"/><path d="M94.375 8.977v11.42h2.9v-9.286h3.752v9.287h2.899V8.978h-9.551ZM106.05 18.06v2.338s.462.227 1.145.227c2.485 0 3.119-1.635 3.265-5.427l.17-4.087h2.949v9.287h2.899V8.978h-8.309l-.243 6.107c-.098 2.43-.268 3.179-1.219 3.179-.414 0-.657-.205-.657-.205ZM129.01 8.75c-2.778 0-4.8 1.68-5.214 4.745h-1.657V8.977h-2.9v11.42h2.9V15.63h1.633c.316 3.224 2.387 4.995 5.238 4.995 3.119 0 5.288-2.112 5.288-5.949 0-3.814-2.169-5.926-5.288-5.926Zm0 9.74c-1.535 0-2.29-1.157-2.29-3.791 0-2.657.755-3.815 2.29-3.815 1.535 0 2.291 1.158 2.291 3.792 0 2.657-.756 3.815-2.291 3.815ZM142.003 20.625c1.34 0 2.29-.227 2.997-.704V17.72c-.731.476-1.608.772-2.826.772-2.072 0-2.924-1.499-2.924-3.86 0-2.475 1.047-3.747 2.948-3.747 1.121 0 2.217.364 2.802.704V9.295c-.609-.318-1.681-.545-3.119-.545-3.703 0-5.628 2.475-5.628 5.949 0 3.814 1.876 5.926 5.75 5.926Z" fill="#fff"/><defs><linearGradient id="a" x1="86.555" y1="3.535" x2="149.386" y2="33.547" gradientUnits="userSpaceOnUse"><stop offset=".036" stop-color="#48CCE0"/><stop offset=".328" stop-color="#505ADD"/><stop offset=".641" stop-color="#BE40C0"/><stop offset=".958" stop-color="#FBA82B"/></linearGradient></defs></svg>
